<svg xmlns="http://www.w3.org/2000/svg" viewBox="0 0 200 200"><title>Casing</title><circle cx="100" cy="100" r="93.4892" style="fill:#93328e"/><path d="M134.3071,88.7263v7.775a8.6489,8.6489,0,0,0-.1012.9608c.0174,5.8917-.1445,11.7792-.4087,17.6641-.2162,4.8158-.4177,9.6326-.6776,14.4461s-.5812,9.6216-.8812,14.4318c-.2416,3.8741-.5115,7.7465-.7213,11.6223-.0442.8168-.435,1.0648-1.1457,1.0979-1.131.0527-2.2609.1576-3.3921.17-.94.0105-1.2482.4562-1.1892,1.3369.0345.5132-.0485,1.0334-.06,1.5508-.0157.715-.3719,1.0381-1.0835,1.0647q-4.4616.1668-8.922.3657c-.6249.0268-.8853-.2729-.8733-.875.0129-.6472-.0054-1.2953.0192-1.9419.0266-.698-.235-.9637-.9773-.9394-3.7194.1214-7.44.2428-11.1611.2689-5.3732.0376-10.7471.0105-16.12-.0336-.8593-.007-1.1676.2611-1.1124,1.1095.0566.87.017,1.7472.0195,2.6212H81.6316c-1.9319-.2557-3.8793-.0868-5.8182-.2063-1.0158-.0626-1.59-.3294-1.4719-1.4685.0459-.4426-.1116-.9029-.098-1.3528.0253-.8437-.4093-1.157-1.1854-1.1756-1.1978-.0286-2.3951-.0768-3.5928-.11-.7482-.0208-1.0768-.3707-1.1154-1.1442-.2356-4.72-.5116-9.4379-.7622-14.157-.2816-5.3013-.539-10.6039-.8277-15.9047-.4912-9.0209-.8757-18.0452-.9584-27.08-.0053-.58-.0711-1.159-.1087-1.7384V80.9513a9.0333,9.0333,0,0,0,.1043-.96c.0478-9.8052.5473-19.5948,1.0116-29.3854.1271-2.6814.26-5.3631.4484-8.0406.1408-2,1.25-3.1732,3.0538-3.2574,5.6867-.2655,11.3713-.5936,17.0669-.6176a5.6168,5.6168,0,0,0,1.64-.1129h16.3275a6.7754,6.7754,0,0,0,.863.1045c4.7245-.0155,9.4408.2452,14.1588.432,3.004.119,6.0089.2763,9.0047.5216,1.96.16,2.9232,1.281,3.0355,3.2537.3859,6.7788.8265,13.5553,1.1317,20.3379.3577,7.9482.6935,15.899.664,23.8591C134.2009,87.6329,134.2707,88.18,134.3071,88.7263Zm-33.872,55.2463a2.3864,2.3864,0,0,0-2.6144,2.165,2.3279,2.3279,0,0,0,2.44,2.2334,2.4993,2.4993,0,0,0,2.6871-2.2351A2.3633,2.3633,0,0,0,100.4351,143.9726Z" style="fill:#fff"/><path d="M99.8994,48.6965c7.8121.0608,15.6181.3261,23.42.7122,1.4146.07,1.4692.1289,1.53,1.5425.328,7.6167.7271,15.23.9874,22.85.3439,10.0673.3964,20.1339.2512,30.2018-.08,5.55-.312,11.0981-.5213,16.6453-.1139,3.016-.339,6.0275-.4785,9.0427-.03.6566-.29.9286-.9277.9574-1.7058.077-3.4095.2058-5.1157.2666-9.6063.342-19.2161.5546-28.8272.342-4.6035-.1017-9.21-.17-13.8106-.4362-.9938-.0576-1.2264-.4586-1.2588-1.3361-.152-4.114-.3825-8.2253-.5175-12.34-.3494-10.6421-.641-21.2853-.584-31.9354.0373-6.9568.2279-13.91.41-20.8636.1188-4.5421.348-9.0815.5324-13.6219.0595-1.4646.0744-1.5115,1.4836-1.5753Q88.18,48.6181,99.8994,48.6965ZM80.725,73.49a103.6359,103.6359,0,0,0,.518,11.2206c.1227,1.3019.6026,1.7584,1.92,1.8231,1.81.089,3.6226.1412,5.4294.2737a172.02,172.02,0,0,0,19.3058.2857c2.4892-.0972,4.9765-.2442,7.4637-.3855,1.648-.0935,2.0635-.4646,2.2186-2.0668.3184-3.29.214-6.5967.3267-9.8949a109.48,109.48,0,0,0-.597-12.4082q-.2616-3.2892-.6874-6.5647c-.1792-1.3771-.571-1.6981-1.9385-1.8305-2.543-.2464-5.0824-.5187-7.6374-.65a133.4325,133.4325,0,0,0-17.075-.0584c-2,.1534-4.0043.2551-6.0068.3759-1.3689.0827-1.9563.5143-2.0888,1.5659A149.5975,149.5975,0,0,0,80.725,73.49Zm18.4634,53.9163A133.7011,133.7011,0,0,0,115.39,126.62a1.6521,1.6521,0,0,0,1.6826-1.5236c.3636-1.9819.3965-3.9915.5865-5.9871a111.4523,111.4523,0,0,0,.2425-16.01c-.1009-2.0687-.2574-4.1346-.365-6.2029-.09-1.73-.5635-2.2149-2.3173-2.2849-.6148-.0246-1.2316-.02-1.8447-.0666a189.7463,189.7463,0,0,0-23.2873-.5q-3.4916.1658-6.9808.38c-1.0534.0632-1.5519.4931-1.6111,1.4492-.212,3.424-.5194,6.8485-.5595,10.2755a138.0247,138.0247,0,0,0,.9047,18.3168c.2064,1.6955.521,2.1368,2.23,2.2963A135.6272,135.6272,0,0,0,99.1884,127.4064Z" style="fill:#93328e"/><path d="M90.0086,70.1121c-.8419.0006-1.6845.0247-2.5254-.0039-2.7453-.0933-4.3926-2.2362-3.5725-4.8453.8381-2.6664,2.532-4.6111,5.4357-5.0828,2.1819-.3544,3.9621.7162,5.5985,1.9873a16.8078,16.8078,0,0,1,2.1756,2.07c.4519.5042.9179.3732,1.4146.26.5315-.1217.5591-.5658.5588-1-.0008-1.5542-.0161-3.1084-.0086-4.6625a3.4649,3.4649,0,0,1,3.2976-3.621,7.6,7.6,0,0,1,7.33,4.4511,4.2475,4.2475,0,0,1-.4376,3.7251,12.9345,12.9345,0,0,1-2.7887,3.205c-.2373.22-.4855.4278-.7252.6451a1.0574,1.0574,0,0,0-.2454,1.2413.9038.9038,0,0,0,.9744.626c1.4229.0509,2.8456.1564,4.2681.1533,1.7745-.0038,3.3574.332,4.35,1.99,1.0375,1.7333.5857,3.3605-.39,4.9311-1.3406,2.1585-3.15,3.5295-5.8344,3.2256a8.2158,8.2158,0,0,1-4.1321-2.0251,20.5546,20.5546,0,0,1-2.0758-1.8994c-.6739-.7072-1.3424-.1648-1.9923-.0623-.5969.0941-.5223.66-.5125,1.1067.03,1.3591.1,2.7176.1105,4.0767a3.9006,3.9006,0,0,1-5.0511,3.8032,9.5828,9.5828,0,0,1-4.21-2.0987c-2.3137-2.1663-2.5027-4.76-.4916-7.24a12.8388,12.8388,0,0,1,2.75-2.7237c.6634-.4425.5839-.9682.4052-1.6006-.18-.6378-.6569-.6285-1.15-.6309C91.6923,70.1086,90.85,70.1115,90.0086,70.1121Zm9.6637-2.5176a2.5839,2.5839,0,0,0-2.5979,2.2545,2.7687,2.7687,0,0,0,2.606,2.4134,2.3418,2.3418,0,1,0-.0081-4.6679Z" style="fill:#93328e"/><path d="M92.2938,108.5727c.5166.0357,1.0352.0537,1.5494.1114a1.2748,1.2748,0,0,0,1.3464-.9c.2455-.5229-.2591-.7463-.5463-1.0115-1.2129-1.1194-2.4651-2.1964-3.6671-3.3271-1.9935-1.8752-1.77-4.343.5519-5.7736a8.4541,8.4541,0,0,1,6.5295-1.0973,5.4416,5.4416,0,0,1,4.18,5.0226,11.8972,11.8972,0,0,1,.0812,3.2906,1.19,1.19,0,0,0,.7069,1.42,1.2116,1.2116,0,0,0,1.5558-.3108q1.6817-1.5425,3.3808-3.0658a4.1543,4.1543,0,0,1,6.8874,1.42,6.3415,6.3415,0,0,1,.6613,4.3224c-.5891,2.4368-2.3614,3.85-5.2021,4.19a14.85,14.85,0,0,1-3.7744.1394c-.9679-.1319-1.0915.6488-1.4416,1.1692-.3749.5573.1919.82.4919,1.0969.9741.9,2.0056,1.7385,2.9752,2.6432a3.3574,3.3574,0,0,1-.5555,5.6369,8.7291,8.7291,0,0,1-5.991,1.11c-2.6659-.4348-4.017-1.9939-4.4437-5.229a11.2565,11.2565,0,0,1-.0252-2.4242,1.6336,1.6336,0,0,0-1.1063-1.7267c-.713-.3629-1.0033.2486-1.3852.5718-1.0371.8778-2.0248,1.8137-3.0521,2.7035a4.344,4.344,0,0,1-6.9327-1.3882,9.087,9.087,0,0,1-.8378-2.2707,4.6928,4.6928,0,0,1,3.18-5.7061A12.756,12.756,0,0,1,92.2938,108.5727Zm7.861,4.7751a2.3065,2.3065,0,1,0-.0691-4.5723,2.2968,2.2968,0,1,0,.0691,4.5723Z" style="fill:#93328e"/><path d="M99.778,68.8815c.59.1187,1.0694.4085,1.0171,1.0657a1.1081,1.1081,0,0,1-2.2077-.1833C98.661,69.111,99.17,68.8994,99.778,68.8815Z" style="fill:#fff"/><path d="M100.1629,112.0711c-.6074-.043-1.1174-.2969-1.14-.95a1.0435,1.0435,0,0,1,1.1224-1.0909.9685.9685,0,0,1,1.0855.9973C101.2483,111.6862,100.7843,111.9837,100.1629,112.0711Z" style="fill:#fff"/></svg>