<svg xmlns="http://www.w3.org/2000/svg" viewBox="0 0 200 200"><title>Icon New Maret 2021</title><circle cx="100" cy="100" r="95.7807" style="fill:#ee2737"/><path d="M138.938,56.5979a3.5782,3.5782,0,0,1-3.7844-3.31c-.334-1.8683.837-2.6579,1.8221-3.6117,1.3162-1.2742,2.4668-2.3225.5783-4.1251-1.436-1.3708-2.3453-3.5057-4.7511-1.1666-1.0585,1.0293-2.244,2.1171-4.2525,1.0407a3.8036,3.8036,0,0,1-2.1976-4.3211c.2306-2.1667-.5426-3.24-2.9106-3.4356-2.1895-.1807-3.601-.0425-3.737,2.612a3.6473,3.6473,0,0,1-2.7415,3.7722c-2.0549.6259-2.9725-.5658-4.124-1.6718-1.0513-1.01-1.9311-2.6173-3.7026-.8632-1.4792,1.4648-3.9183,2.4621-1.5117,5.1566.8212.9194,1.8226,2.0383,1.1422,3.6561-.7666,1.8226-1.757,2.9567-3.9817,2.7315-1.1735-.1189-2.6618-.589-3.5549.6723a3.6648,3.6648,0,0,0,2.4627,5.8856c2.21.3651,3.6618,1.2538,3.7016,3.7406.1964,1.4516-1.0236,2.136-1.8216,3.0783-.641.757-1.9907,1.3277-1.7124,2.358.4426,1.6389,1.8158,2.8535,3.0786,3.9262.8465.7191,1.663-.4232,2.4591-.8208,1.1806-.5895,2.1375-1.8957,3.6479-1.4591,2.0243.5852,3.4271,1.6758,3.2089,4.1675-.102,1.1651-.6036,2.6527.7484,3.5117a3.7293,3.7293,0,0,0,5.6752-2.5863c.3127-2.24,1.4651-3.1993,3.5674-3.5916,1.739-.3246,2.3536,1.0207,3.3758,1.8221.8172.6407,1.2535,1.9655,2.6467,1.6331,3.0247-.7216,4.2545-3.6525,2.35-6.1031-1.4145-1.82-1.2286-3.2333.012-4.9815,1.0105-1.424,2.3666-1.1973,3.66-1.127,2.2011.12,3.1518-.648,3.4028-2.98C141.95,57.8359,141.372,56.7178,138.938,56.5979Zm-17.5565,7.6487a6.1664,6.1664,0,0,1-.3067-12.3285,6.221,6.221,0,0,1,6.341,5.9838A6.3333,6.3333,0,0,1,121.3815,64.2466Z" style="fill:#fff"/><path d="M112.88,88.6356a1.7691,1.7691,0,0,1-1.871-1.6365c-.1652-.9237.4138-1.3141.9009-1.7857.6507-.63,1.22-1.1482.2859-2.0395-.71-.6777-1.16-1.7333-2.349-.5768-.5234.5089-1.11,1.0468-2.1026.5146a1.8806,1.8806,0,0,1-1.0865-2.1365c.114-1.0712-.2683-1.602-1.4391-1.6986-1.0825-.0893-1.78-.021-1.8476,1.2914a1.8033,1.8033,0,0,1-1.3554,1.865c-1.016.3095-1.47-.28-2.039-.8265-.52-.4993-.9548-1.2941-1.8307-.4268-.7313.7242-1.9372,1.2173-.7474,2.55.4061.4546.9012,1.0078.5648,1.8076-.379.9012-.8687,1.4619-1.9687,1.35-.58-.0587-1.316-.2911-1.7575.3325a1.8119,1.8119,0,0,0,1.2175,2.91c1.0926.18,1.8105.62,1.83,1.8494.0971.7177-.5061,1.0561-.9006,1.522-.317.3743-.9843.6564-.8467,1.1658a4.2156,4.2156,0,0,0,1.5221,1.9412c.4186.3555.8222-.2092,1.2159-.4058.5836-.2915,1.0568-.9373,1.8035-.7214a1.823,1.823,0,0,1,1.5866,2.06c-.05.576-.2985,1.3115.37,1.7362a1.8438,1.8438,0,0,0,2.8059-1.2787,1.8808,1.8808,0,0,1,1.7638-1.7758c.86-.16,1.1637.5047,1.6691.9009.404.3168.62.9718,1.3085.8074a1.8338,1.8338,0,0,0,1.162-3.0174,1.7863,1.7863,0,0,1,.0059-2.463c.5-.704,1.17-.5919,1.81-.5571,1.0882.059,1.5583-.32,1.6824-1.4735C114.3688,89.2477,114.0831,88.6949,112.88,88.6356Zm-8.68,3.7816a3.0488,3.0488,0,0,1-.1516-6.0954,3.0758,3.0758,0,0,1,3.1351,2.9585A3.1313,3.1313,0,0,1,104.1994,92.4172Z" style="fill:#fff"/><path d="M146.6715,65.623c.1906,5.82.3823,11.64.5026,17.4631.1844,8.9248.09,17.8481.081,26.7722a5.2523,5.2523,0,0,1-.1541,1.549,3.3463,3.3463,0,0,1-2.8708,2.56,9.3467,9.3467,0,0,1-1.1855.08c-14.3528.2318-28.7066.1809-43.06.1089-7.0887-.0861-14.1775-.16-21.266-.2622-5.4026-.0781-10.8049-.19-16.2073-.2922q-2.9736-.0561-5.9469-.1367A3.3481,3.3481,0,0,1,53,109.8594c-.2242-8.23-.0114-16.4594.0656-24.6882.0489-5.2276.2659-10.4539.427-15.68.0473-1.5345.12-3.0706.2532-4.6a4.16,4.16,0,0,1,4.1881-4.0892c2.7449-.1805,5.4932-.318,8.2415-.4355,5.9924-.2561,11.9841-.5478,17.979-.7145q3.8615-.1073,7.7237-.1644l2.3968-2.7586c-3.9747.0644-7.9487.1775-11.9228.2648-2.6011.0571-5.2015.1759-7.8.3049-5.4688.2714-10.9335.6619-16.4053.8231a7.8044,7.8044,0,0,0-7.4576,7.1186c-.0942,1.7569-.2141,3.5133-.2639,5.2716-.1609,5.674-.366,11.3481-.4216,17.0234-.0786,8.033-.0408,16.0671-.049,24.1008a7.8669,7.8669,0,0,0,1.49,4.4441,1.2893,1.2893,0,0,0,1.179.6148c2.1317.0064,4.2627.0581,6.3943.1147q10.7048.2844,21.4123.4575c5.5525.0968,11.1059.1409,16.659.2041.9913.0112,1.9829.0016,2.9743.0016v.0976c.3468,0,.6935.0011,1.04,0,8.1569-.0277,16.3136.0521,24.471-.0662q10.9689-.1591,21.9368-.36a1.4179,1.4179,0,0,0,1.2418-.65,8.7239,8.7239,0,0,0,1.5582-5.1842c.0964-13.5866.1523-27.173-.2917-40.7556-.059-1.8077-.138-3.617-.287-5.419a7.57,7.57,0,0,0-1.8913-4.2641l-1.9785,1.9563A5.35,5.35,0,0,1,146.6715,65.623Z" style="fill:none"/><path d="M148.7148,121.2168a1.5158,1.5158,0,0,0-1.5475-.8712q-4.7927.181-9.5886.2694c-6.0483.1158-12.0967.2388-18.1456.2978-10.7617.1048-21.5231.0215-32.2836-.1517-3.1471-.081-6.2939-.1718-9.4413-.241-5.6013-.1233-11.2031-.2278-16.8044-.3515q-4.1632-.0921-8.3253-.231a.9666.9666,0,0,0-.9412.576,57.653,57.653,0,0,0-3.7045,7.37c-.3393.8174-.2934.8823.5874.89,3.7932.034,7.5838.1592,11.3746.29q7.06.2432,14.1223.4353c6.2944.1655,12.5889.3595,18.8846.4374,12.3229.1524,24.6445.0476,36.9626-.38,5.574-.1932,11.15-.3279,16.7252-.491,1.6849-.0493,3.37-.0983,5.0543-.16.7615-.028.8319-.15.5259-.8555A68.8208,68.8208,0,0,0,148.7148,121.2168Zm-87.2589,4.0681c-.4682-.0208-.9382-.0033-1.4073-.0033v-.05q-1.185,0-2.37,0a.6848.6848,0,0,1-.7886-.7464c-.1091-1.6877-.104-1.7092,1.5832-1.68,1.16.02,2.3208.0522,3.4811.0475.6625-.0028.9871.2106.982.9449C62.9239,125.6322,62.97,125.352,61.4559,125.2849Zm10.53.2964c-.52-.011-1.04-.0017-1.56-.0017v-.0755q-1.3368,0-2.6736,0c-.565.001-.8344-.2385-.8684-.8425-.0918-1.6272.0051-1.72,1.6465-1.6262,1.31.0748,2.6233.1035,3.9352.1056.6769.001.9806.2319,1,.9451C73.508,125.6184,73.536,125.6145,71.986,125.5813Zm12.068.317c-1.4346-.0538-2.8718-.0335-4.3076-.0573-1.11-.0183-1.1308-.0465-1.1482-1.12-.0242-1.493-.0243-1.492,1.4457-1.3885.3456.0244.6917.0468,1.038.0564s.6931.0021,1.04.0021v.0633c.916,0,1.832.0026,2.7479-.001.5128-.002.7471.2287.7875.7582C85.7887,125.9372,85.7548,125.9621,84.054,125.8983Zm13.15.2485q-1.3377.0025-2.6753,0l0-.1275c-1.0148,0-2.03-.0069-3.0444.0032-.4309.0043-.6422-.1854-.6542-.6147-.0578-2.0767-.1107-1.81,1.6018-1.8151q2.3779-.0077,4.7562.0172c.9631.01,1.0687.1271,1.0973,1.0658.0037.1238.0041.2477.004.3716C98.2888,126.0852,98.2308,126.1449,97.2042,126.1468Zm11.7946.0146q-1.15.0016-2.3006,0c-.9646-.0007-1.93-.0121-2.894.004-.5123.0086-.76-.1693-.7913-.7213-.0983-1.7165-.0872-1.7446,1.6362-1.743,1.6574.0014,3.3149.0159,4.972-.0057.6363-.0084.8725.249.8829.88C110.53,126.1466,110.5382,126.1594,108.9988,126.1614Zm14.0675-1.6976c-.1176,1.613.126,1.5495-1.6381,1.5538-.6431.0016-1.286,0-1.9291,0v.1015c-.9141,0-1.8285-.0128-2.7422.0048-.5589.0107-.7873-.21-.8009-.7878-.04-1.7276-.0571-1.7289,1.682-1.7344,1.5335-.0048,3.0671.005,4.6-.022C122.882,123.5686,123.1141,123.8084,123.0663,124.4638Zm9.9825-.2355c-.0925,1.5749-.0709,1.5795-1.6914,1.6088-.5923.0108-1.185.0018-1.7775.0018v.0382c-.8149,0-1.6305-.0229-2.4441.0079-.5522.0209-.7738-.2139-.7416-.7408.0015-.0246,0-.0494-.0006-.0741-.0455-1.58-.0151-1.6072,1.5738-1.6213,1.432-.0127,2.8643-.0205,4.2956-.0593C132.88,123.3728,133.085,123.6117,133.0488,124.2283Zm10.1648-.2042c-.0888,1.4913-.0685,1.4956-1.58,1.5227-.5686.01-1.1375.0016-1.7067.0015-.6917.03-1.3845.042-2.0738.097-.5765.046-.7852-.1744-.7893-.759-.0113-1.5863-.0327-1.593,1.5417-1.65,1.2352-.0449,2.472-.0512,3.7063-.1117C142.984,123.0916,143.2549,123.3325,143.2136,124.0241Z" style="fill:none"/><path d="M86.4019,65.791l2.7448-3.1592Q79.74,62.7766,70.34,63.21c-4.1584.1906-8.317.3749-12.4749.5768-1.0934.0531-1.4273.4208-1.4725,1.5288-.1486,3.64-.3305,7.2787-.43,10.92-.1363,5.0053-.2543,10.0119-.2964,15.0187-.05,6-.0139,12.0005-.0117,18.0008.0005,1.0909.1032,1.1911,1.19,1.1947,6.1978.02,12.3935.1757,18.59.276,8.2046.1329,16.41.2022,24.6155.2989l0,.1563c6.074,0,12.148.0171,18.222-.0042q12.5326-.0439,25.0652-.1342c1.0378-.0059,1.16-.12,1.16-1.1544-.0034-8.1565.1254-16.3134-.0867-24.4694-.1308-5.03-.2286-10.0609-.3653-15.0908-.0443-1.6341-.1519-3.267-.2541-4.8989a3.75,3.75,0,0,0-.0623-.489L115.6049,92.7476Z" style="fill:none"/><path d="M150.9709,119.5078a1.1751,1.1751,0,0,1,.0471-1.5206,10.765,10.765,0,0,0,2.0132-6.425c.0479-3.2724-.0132-6.547.0724-9.8181.1879-7.19-.0148-14.3787-.0736-21.5672-.0392-4.7821-.2319-9.5642-.4273-14.3434a11.5173,11.5173,0,0,0-2.783-6.9173l-1.9776,1.9554a7.57,7.57,0,0,1,1.8913,4.2641c.149,1.802.228,3.6113.287,5.419.444,13.5826.3881,27.169.2917,40.7556a8.7239,8.7239,0,0,1-1.5582,5.1842,1.4179,1.4179,0,0,1-1.2418.65q-10.9683.1875-21.9368.36c-8.1574.1183-16.3141.0385-24.471.0662-.3468.0012-.6935,0-1.04,0v-.0976c-.9914,0-1.983.01-2.9743-.0016-5.5531-.0632-11.1065-.1073-16.659-.2041q-10.707-.1869-21.4123-.4575c-2.1316-.0566-4.2626-.1083-6.3943-.1147a1.2893,1.2893,0,0,1-1.179-.6148,7.8669,7.8669,0,0,1-1.49-4.4441c.0082-8.0337-.03-16.0678.049-24.1008.0556-5.6753.2607-11.3494.4216-17.0234.05-1.7583.17-3.5147.2639-5.2716a7.8044,7.8044,0,0,1,7.4576-7.1186c5.4718-.1612,10.9365-.5517,16.4053-.8231,2.5987-.129,5.1991-.2478,7.8-.3049,3.9741-.0873,7.9481-.2,11.9228-.2648l2.5894-2.98q-2.6146.0219-5.23.0713-6.5044.1284-13.0056.4046c-5.4955.24-10.9873.5637-16.481.8439a45.666,45.666,0,0,0-5.781.39A10.8552,10.8552,0,0,0,48.1,64.31c-.3153,2.1434-.2726,4.3031-.3743,6.4543-.1682,3.5646-.2411,7.1342-.32,10.7025-.2163,9.7918-.1882,19.5853-.1828,29.3786a11.65,11.65,0,0,0,2.0555,6.9391A.9781.9781,0,0,1,49.2388,119a61.75,61.75,0,0,0-4.6171,9.7286,17.5127,17.5127,0,0,0-1.1271,8.9705,6.711,6.711,0,0,0,1.0737,2.6732,4.1428,4.1428,0,0,0,3.5579,2.0269c7.383.19,14.7641.4641,22.1442.7541,6.9106.2714,13.8207.5384,20.7374.5878.295.0021.59.0529.8846.081h16.5154c.32-.0282.64-.0805.9593-.0809,6.2236-.01,12.44-.2884,18.6575-.5087,5.7209-.2027,11.4389-.4848,17.1583-.7283,2.3521-.1,4.704-.2089,7.0571-.2778a3.327,3.327,0,0,0,2.3291-.9727,6.9321,6.9321,0,0,0,2.0776-4.6426,17.24,17.24,0,0,0-.88-6.8121A53.8909,53.8909,0,0,0,150.9709,119.5078Zm.6729,9.3972c-1.6844.062-3.3694.111-5.0543.16-5.5751.1631-11.1512.2978-16.7252.491-12.3181.4271-24.64.5319-36.9626.38-6.2957-.0779-12.59-.2719-18.8846-.4374q-7.062-.1858-14.1223-.4353c-3.7908-.13-7.5814-.2557-11.3746-.29-.8808-.0079-.9267-.0728-.5874-.89a57.653,57.653,0,0,1,3.7045-7.37.9666.9666,0,0,1,.9412-.576q4.1619.1369,8.3253.231c5.6013.1237,11.2031.2282,16.8044.3515,3.1474.0692,6.2942.16,9.4413.241,10.76.1732,21.5219.2565,32.2836.1517,6.0489-.059,12.0973-.182,18.1456-.2978q4.7954-.0917,9.5886-.2694a1.5158,1.5158,0,0,1,1.5475.8712A68.8208,68.8208,0,0,1,152.17,128.05C152.4757,128.755,152.4053,128.877,151.6438,128.905Z" style="fill:#fff"/><path d="M66.1758,60.3666c-2.7483.1175-5.4966.255-8.2415.4355a4.16,4.16,0,0,0-4.1881,4.0892c-.1329,1.5291-.2059,3.0652-.2532,4.6-.1611,5.2263-.3781,10.4526-.427,15.68-.077,8.2288-.29,16.4581-.0656,24.6882a3.3481,3.3481,0,0,0,3.5643,3.6058q2.9731.0831,5.9469.1367c5.4024.102,10.8047.2141,16.2073.2922,7.0885.1024,14.1773.1761,21.266.2622,14.3532.072,28.707.1229,43.06-.1089a9.3467,9.3467,0,0,0,1.1855-.08,3.3463,3.3463,0,0,0,2.8708-2.56,5.2523,5.2523,0,0,0,.1541-1.549c.0092-8.9241.1034-17.8474-.081-26.7722-.12-5.823-.312-11.6427-.5026-17.4631a5.35,5.35,0,0,0-.8079-2.7951l-2.1355,2.1116a3.75,3.75,0,0,1,.0623.489c.1022,1.6319.21,3.2648.2541,4.8989.1367,5.03.2345,10.0608.3653,15.0908.2121,8.156.0833,16.3129.0867,24.4694.0005,1.0343-.122,1.1485-1.16,1.1544q-12.5327.0707-25.0652.1342c-6.074.0213-12.148.0042-18.222.0042l0-.1563c-8.2053-.0967-16.4109-.166-24.6155-.2989-6.1966-.1-12.3923-.2559-18.59-.276-1.0863-.0036-1.189-.1038-1.19-1.1947-.0022-6-.0387-12.0009.0117-18.0008.0421-5.0068.16-10.0134.2964-15.0187.0991-3.6411.281-7.28.43-10.92.0452-1.108.3791-1.4757,1.4725-1.5288,4.1579-.2019,8.3165-.3862,12.4749-.5768q9.4-.4308,18.8069-.5778l2.7318-3.1441q-3.8622.0576-7.7237.1644C78.16,59.8188,72.1682,60.1105,66.1758,60.3666Z" style="fill:#fff"/><path d="M97.1886,123.61q-2.3779-.0255-4.7562-.0172c-1.7125.0055-1.66-.2616-1.6018,1.8151.012.4293.2233.619.6542.6147,1.0147-.01,2.03-.0032,3.0444-.0032l0,.1275q1.3377,0,2.6753,0c1.0266-.0019,1.0846-.0616,1.0857-1.0991,0-.1239,0-.2478-.004-.3716C98.2573,123.7374,98.1517,123.6207,97.1886,123.61Z" style="fill:#fff"/><path d="M109.6211,123.695c-1.6571.0216-3.3146.0071-4.972.0057-1.7234-.0016-1.7345.0265-1.6362,1.743.0316.552.279.73.7913.7213.9644-.0161,1.9294-.0047,2.894-.004q1.15.0009,2.3006,0c1.5394-.002,1.5311-.0148,1.5052-1.5865C110.4936,123.944,110.2574,123.6866,109.6211,123.695Z" style="fill:#fff"/><path d="M84.87,123.4531c-.9159.0036-1.8319.001-2.7479.001v-.0633c-.3467,0-.6934.0075-1.04-.0021s-.6924-.032-1.038-.0564c-1.47-.1035-1.47-.1045-1.4457,1.3885.0174,1.0737.0382,1.1019,1.1482,1.12,1.4358.0238,2.873.0035,4.3076.0573,1.7008.0638,1.7347.0389,1.6031-1.687C85.6167,123.6818,85.3824,123.4511,84.87,123.4531Z" style="fill:#fff"/><path d="M122.238,123.58c-1.533.027-3.0666.0172-4.6.022-1.7391.0055-1.7224.0068-1.682,1.7344.0136.5779.242.7985.8009.7878.9137-.0176,1.8281-.0048,2.7422-.0048v-.1015c.6431,0,1.286.0013,1.9291,0,1.7641-.0043,1.52.0592,1.6381-1.5538C123.1141,123.8084,122.882,123.5686,122.238,123.58Z" style="fill:#fff"/><path d="M72.4654,123.1414c-1.3119-.0021-2.6256-.0308-3.9352-.1056-1.6414-.0937-1.7383-.001-1.6465,1.6262.034.604.3034.8435.8684.8425q1.337-.0022,2.6736,0v.0755c.52,0,1.04-.0093,1.56.0017,1.55.0332,1.522.0371,1.48-1.4948C73.446,123.3733,73.1423,123.1424,72.4654,123.1414Z" style="fill:#fff"/><path d="M132.263,123.39c-1.4313.0388-2.8636.0466-4.2956.0593-1.5889.0141-1.6193.0417-1.5738,1.6213.0006.0247.0021.05.0006.0741-.0322.5269.1894.7617.7416.7408.8136-.0308,1.6292-.0079,2.4441-.0079v-.0382c.5925,0,1.1852.009,1.7775-.0018,1.62-.0293,1.5989-.0339,1.6914-1.6088C133.085,123.6117,132.88,123.3728,132.263,123.39Z" style="fill:#fff"/><path d="M142.3123,123.1245c-1.2343.0605-2.4711.0668-3.7063.1117-1.5744.0571-1.553.0638-1.5417,1.65.0041.5846.2128.805.7893.759.6893-.055,1.3821-.0668,2.0738-.097.5692,0,1.1381.0087,1.7067-.0015,1.511-.0271,1.4907-.0314,1.58-1.5227C143.2549,123.3325,142.984,123.0916,142.3123,123.1245Z" style="fill:#fff"/><path d="M62.0345,122.85c-1.3119-.002-2.6255-.0307-3.9352-.1056-1.6414-.0937-1.7383-.001-1.6465,1.6262.034.604.3034.8435.8684.8426q1.337-.0023,2.6737-.0005v.0755c.52,0,1.04-.0093,1.56.0018,1.55.0331,1.522.0371,1.48-1.4948C63.0151,123.0816,62.7114,122.8507,62.0345,122.85Z" style="fill:#fff"/></svg>