<svg xmlns="http://www.w3.org/2000/svg" viewBox="0 0 200 200"><title>Projector</title><circle cx="100" cy="100" r="95.4009" style="fill:#df1995"/><path d="M177.0776,82.6773v27.28c-.0442.1355-.0958.2692-.1314.4069-.9862,3.8138-3.24,6.3979-7.1637,7.3288a1.2111,1.2111,0,0,0-1.0615,1.3474c-.048,2.2889-.1447,4.577-.2478,6.8642-.0272.6032-.0445,1.2522-.931,1.2919q-4.3415.1944-8.6813.4244c-.7484.0385-1.0242-.314-.99-1.0333.0531-1.1079.0456-2.2189.109-3.326a9.3539,9.3539,0,0,0,.0039-2.665,1.6084,1.6084,0,0,0-.3559.1443c-.2795.2232-.5523.4554-.819.6937a32.9271,32.9271,0,0,1-19.3382,8.6469c-9.9233.9131-18.301-2.2916-25.2634-9.328a2.5238,2.5238,0,0,0-2.0629-.8649c-2.2519.0951-4.5062.1759-6.76.18q-15.1937.0275-30.3876-.0047c-4.15-.0157-8.3006-.1455-12.45-.2668q-8.0994-.2368-16.1963-.5534c-.9954-.0382-1.3379.3355-1.2863,1.3142.1242,2.3576.1528,4.72.2812,7.0774.0547,1.0049-.3406,1.3379-1.3046,1.2809-2.9279-.1732-5.858-.3123-8.7879-.4482-.709-.0328-1.0021-.3549-1.0327-1.0675-.1-2.3225-.31-4.6422-.3413-6.9648a1.6892,1.6892,0,0,0-1.467-1.92A9.631,9.631,0,0,1,23.1,109.0363c-.1914-8.5868-.31-17.18.0877-25.764.2726-5.8834,4.0934-9.6073,9.9266-9.84,7.4709-.2973,14.9408-.6391,22.4145-.8412,9.014-.2438,18.0284-.5261,27.0481-.4947,8.0879.0281,16.1776-.1061,24.2622.2207a2.3918,2.3918,0,0,0,2.2461-1.089c5.33-7.15,12.329-11.5289,21.2789-12.5052a32.5164,32.5164,0,0,1,20.1419,4.1859,35.4828,35.4828,0,0,1,11.5011,10.4642,1.9518,1.9518,0,0,0,1.671.9609c1.5018.0276,3.0041.076,4.5038.1585a8.9574,8.9574,0,0,1,5.9762,2.56A10.4443,10.4443,0,0,1,177.0776,82.6773Zm-45.2439,39.7335c10.3379.1294,16.3541-2.4342,21.3054-7.2929,6.768-6.6414,9.5378-14.8039,8.441-24.2277-1.4572-12.5212-11.3419-23.4289-24.1784-24.6035-9.3889-.8591-16.9921,2.6677-22.1542,10.4117-7.0658,10.6-7.1984,21.8814-1.149,32.942C118.5418,117.7644,125.6668,122.2082,131.8337,122.4108Zm-59.5548-26.79a2.9894,2.9894,0,0,0,2.9884,3.1079,3.1635,3.1635,0,0,0-.0839-6.3161A3.0351,3.0351,0,0,0,72.2789,95.6206ZM60.837,95.5735a3.0287,3.0287,0,0,0-2.8591-3.1361,3.203,3.203,0,0,0-2.8551,3.1871,3.0419,3.0419,0,0,0,2.9008,3.093A2.9556,2.9556,0,0,0,60.837,95.5735Zm-21.5837-.0859A3.0631,3.0631,0,0,0,41.93,98.7a2.9593,2.9593,0,0,0,2.79-2.9722,2.7465,2.7465,0,1,0-5.4663-.24Zm24.4159-7.7639a2.6268,2.6268,0,0,0,2.668,2.8526,2.937,2.937,0,0,0,2.8256-2.9236,2.7487,2.7487,0,1,0-5.4936.071Zm-11.6.0928A2.4656,2.4656,0,0,0,49.596,85.07a2.7615,2.7615,0,0,0-2.6578,2.8914,2.688,2.688,0,0,0,2.5245,2.7917A2.7364,2.7364,0,0,0,52.0689,87.8165Zm-15.5816.0407a2.3549,2.3549,0,0,0-2.4736-2.3939,2.5214,2.5214,0,0,0-2.51,2.7511,2.6536,2.6536,0,0,0,2.4519,2.7466A2.9988,2.9988,0,0,0,36.4873,87.8572Z" style="fill:#fff"/><path d="M155.09,93.7067c.1741,9.6942-5.8154,18.08-14.2514,20.44-6.7368,1.885-12.6421.0705-17.4174-4.9746-7.29-7.7021-7.7667-20.4035-1.2227-28.75a17.4375,17.4375,0,0,1,24.2919-3.1695A20.8327,20.8327,0,0,1,155.09,93.7067Z" style="fill:#fff"/></svg>