<svg xmlns="http://www.w3.org/2000/svg" viewBox="0 0 200 200"><title>Software</title><path d="M131.7033,52.2285a2.1934,2.1934,0,0,0,2.27-2.311,2.8066,2.8066,0,0,0-2.86-2.7424,2.2729,2.2729,0,0,0-2.2656,2.2593A2.9479,2.9479,0,0,0,131.7033,52.2285Z" style="fill:none"/><path d="M135.71,50.753c-.4327.4153-.1916.9091.2008,1.2846.3769.3608.86.5392,1.2242.1076.6269-.7426,1.0986-.5732,1.68.04a.8158.8158,0,0,0,1.293.0238.9442.9442,0,0,0-.0068-1.33,2.112,2.112,0,0,0-.31-.3432c-.4006-.3392-.4221-.66-.0131-1.0187a1.1864,1.1864,0,0,0,.5071-.8536,1.2864,1.2864,0,0,0-.6694-.9613.7761.7761,0,0,0-1.0025.0906c-.59.63-1.07.6206-1.6331-.0465a.8184.8184,0,0,0-1.2934-.0288.836.836,0,0,0-.0153,1.3505C136.3572,49.6566,136.3665,50.1228,135.71,50.753Z" style="fill:none"/><path d="M125.1653,51.915a2.239,2.239,0,0,0,2.3819-2.2987,2.86,2.86,0,0,0-2.8753-2.752,2.2885,2.2885,0,0,0-2.3293,2.2849A2.9865,2.9865,0,0,0,125.1653,51.915Z" style="fill:none"/><path d="M124.6719,46.8643a2.2885,2.2885,0,0,0-2.3293,2.2849,2.9865,2.9865,0,0,0,2.8227,2.7658,2.239,2.239,0,0,0,2.3819-2.2987A2.86,2.86,0,0,0,124.6719,46.8643Z" style="fill:none"/><path d="M131.1137,47.1751a2.2729,2.2729,0,0,0-2.2656,2.2593,2.9479,2.9479,0,0,0,2.8552,2.7941,2.1934,2.1934,0,0,0,2.27-2.311A2.8066,2.8066,0,0,0,131.1137,47.1751Z" style="fill:none"/><path d="M139.7916,50.5364c-.4006-.3392-.4221-.66-.0131-1.0187a1.1864,1.1864,0,0,0,.5071-.8536,1.2864,1.2864,0,0,0-.6694-.9613.7761.7761,0,0,0-1.0025.0906c-.59.63-1.07.6206-1.6331-.0465a.8184.8184,0,0,0-1.2934-.0288.836.836,0,0,0-.0153,1.3505c.6853.588.6946,1.0542.0381,1.6844-.4327.4153-.1916.9091.2008,1.2846.3769.3608.86.5392,1.2242.1076.6269-.7426,1.0986-.5732,1.68.04a.8158.8158,0,0,0,1.293.0238.9442.9442,0,0,0-.0068-1.33A2.112,2.112,0,0,0,139.7916,50.5364Z" style="fill:none"/><circle cx="100" cy="100" r="93.4892" style="fill:#f06400"/><path d="M136.9816,56.9375c-.2689.2235-.5343.4276-.8.6347-4.2585,3.3139-8.1774,4.4872-12.32,3.0664a16.8509,16.8509,0,0,1-5.0321-2.9c-1.5888-1.2746-2.6522-2.2845-2.6129-4.3706.08-4.2438-.0248-8.491.0566-12.7348.0459-2.3924-.7857-3.67-3.3565-3.84-4.0908-.2708-8.1869-.6335-12.2411-1.2275-2.9693-.4351-4.0171.7708-4.3867,3.5434-.5231,3.9217-1.3706,7.8009-2.1015,11.6941-.2323,1.2383-.2212,2.8571-1.5453,3.3094-3.6019,1.23-7.2433,2.6734-10.9741,3.09-2.89.3224-4.1144-3.0846-6.1555-4.7359-2.8313-2.2909-4.4609-6.8845-7.81-7.29-3.52-.4264-5.916,3.8619-8.87,5.9889-6.91,4.9756-6.862,5.0423-2.1453,12.0605,5.8945,8.7711,5.84,8.7451,1.6278,17.6064a4.3945,4.3945,0,0,1-4.5719,2.9311c-4.2427-.1091-8.4928.0574-12.7353-.0589-2.379-.0652-3.6994.5791-3.8609,3.227-.2579,4.2329-.7194,8.4571-1.2281,12.6691-.294,2.4324.53,3.664,3.02,4.0844,4.0442.6825,8.0435,1.6273,12.07,2.42,1.7323.3412,3.0941.8808,3.8878,2.765,3.919,9.3024,3.9544,9.3576-3.3443,16.3915-6.2942,6.0658-7.22,6.9647-3.7156,11.8822.607.8519,1.3439,1.8213,2.2122,2.9624.7415.9743,1.397,1.8347,1.9936,2.59,4.4115,5.5835,5.5031,5.2338,12.6819-.2882,5.5053-4.2349,10.1061-5.024,15.8213-.841,2.184,1.5984,3.4652,2.9363,3.35,5.7045-.17,4.097.034,8.2083-.0682,12.31-.0558,2.2387.5884,3.3366,3.0623,3.463,4.3739.2236,8.7485.6573,13.0871,1.2606,2.4137.3356,3.3037-.5939,3.735-2.7916.8446-4.3027,1.8622-8.5717,2.8239-12.8512.3118-1.3875.68-2.6639,2.1556-3.4319,7.2579-3.7773,10.5874-3.3194,16.3031,2.3954l1.201,1.2009c6.7993,6.7993,6.7993,6.7993,14.1819.9914,7.5746-5.9588,8.0166-6.3011,2.1184-13.9179-4.4706-5.7732-5.2715-10.583-.6531-16.458,1.6445-2.0919,2.9816-3.5365,5.7491-3.3545,3.8082.2505,7.6312.2674,11.4424.4836,2.5355.1439,3.962-.6341,4.1765-3.4529.3219-4.2282.8666-8.4459,1.4946-12.6415.3683-2.4614-.4383-3.71-2.9077-4.1506-4.3177-.7708-8.61-1.6841-12.9074-2.5663-1.3815-.2834-2.6972-.582-3.4623-2.0849-3.39-6.6568-2.7264-11.1289,2.5614-16.4174,7.9537-7.9548,7.9537-7.9548.9285-16.7461C143.8047,52.1113,143.3875,51.61,136.9816,56.9375Z" style="fill:#fff"/><path d="M85.7281,73.9158l13.56,13.56L87.2406,99.5239,73.7165,86a17.577,17.577,0,0,0-.21,10.6248,20.138,20.138,0,0,0,3.4457,6.6566,23.7457,23.7457,0,0,0,1.9948,2.266,18.519,18.519,0,0,0,18.307,4.8212l16.3667,16.3666,12.0476-12.0476-15.86-15.86a19.2094,19.2094,0,0,0-4.8015-20.42,17.4786,17.4786,0,0,0-2.0624-1.75A18.962,18.962,0,0,0,96.1738,73.59,19.98,19.98,0,0,0,85.7281,73.9158Z" style="fill:#f06400"/></svg>